<mxfile host="Electron" agent="Mozilla/5.0 (Windows NT 10.0; Win64; x64) AppleWebKit/537.36 (KHTML, like Gecko) draw.io/26.2.2 Chrome/134.0.6998.178 Electron/35.1.2 Safari/537.36" version="26.2.2" pages="2">
  <diagram name="Components" id="QPO7WxqYtw3AEFgzLeLF">
    <mxGraphModel dx="726" dy="562" grid="1" gridSize="10" guides="1" tooltips="1" connect="1" arrows="1" fold="1" page="1" pageScale="1" pageWidth="500" pageHeight="270" math="0" shadow="0">
      <root>
        <mxCell id="hvz59eMdP9MXctziR_3p-0" />
        <mxCell id="hvz59eMdP9MXctziR_3p-1" parent="hvz59eMdP9MXctziR_3p-0" />
        <mxCell id="hvz59eMdP9MXctziR_3p-4" value="" style="sketch=0;pointerEvents=1;shadow=0;dashed=0;html=1;strokeColor=none;fillColor=#505050;labelPosition=center;verticalLabelPosition=bottom;verticalAlign=top;outlineConnect=0;align=center;shape=mxgraph.office.devices.lcd_monitor;hachureGap=4;jiggle=2;curveFitting=1;fontFamily=Architects Daughter;fontSource=https%3A%2F%2Ffonts.googleapis.com%2Fcss%3Ffamily%3DArchitects%2BDaughter;" vertex="1" parent="hvz59eMdP9MXctziR_3p-1">
          <mxGeometry x="32.40999999999994" y="34" width="39" height="32" as="geometry" />
        </mxCell>
        <mxCell id="hvz59eMdP9MXctziR_3p-5" style="edgeStyle=orthogonalEdgeStyle;rounded=0;sketch=1;hachureGap=4;jiggle=2;curveFitting=1;orthogonalLoop=1;jettySize=auto;html=1;fontFamily=Architects Daughter;fontSource=https%3A%2F%2Ffonts.googleapis.com%2Fcss%3Ffamily%3DArchitects%2BDaughter;startArrow=classic;startFill=1;exitX=0.5;exitY=1;exitDx=0;exitDy=0;" edge="1" parent="hvz59eMdP9MXctziR_3p-1" source="rcz2kjM6Kx2Q1MhqM1Ag-0" target="hvz59eMdP9MXctziR_3p-22">
          <mxGeometry relative="1" as="geometry">
            <mxPoint x="158" y="110" as="sourcePoint" />
            <mxPoint x="157.9999999999999" y="160" as="targetPoint" />
          </mxGeometry>
        </mxCell>
        <mxCell id="hvz59eMdP9MXctziR_3p-6" value="SignalR" style="edgeLabel;html=1;align=center;verticalAlign=middle;resizable=0;points=[];sketch=1;hachureGap=4;jiggle=2;curveFitting=1;fontFamily=Architects Daughter;fontSource=https%3A%2F%2Ffonts.googleapis.com%2Fcss%3Ffamily%3DArchitects%2BDaughter;" vertex="1" connectable="0" parent="hvz59eMdP9MXctziR_3p-5">
          <mxGeometry x="0.0095" relative="1" as="geometry">
            <mxPoint as="offset" />
          </mxGeometry>
        </mxCell>
        <mxCell id="hvz59eMdP9MXctziR_3p-17" value="" style="shape=image;verticalLabelPosition=bottom;labelBackgroundColor=default;verticalAlign=top;aspect=fixed;imageAspect=0;image=data:image/png,iVBORw0KGgoAAAANSUhEUgAAAHkAAABmCAYAAADvej4HAAAAAXNSR0IArs4c6QAAAARnQU1BAACxjwv8YQUAAAAJcEhZcwAADsMAAA7DAcdvqGQAABU0SURBVHhe7Z15sNXz/8ffSkVKpX1B9mijkCVrthApg5SUJfxhyTJtZhCj0YJQmr62wVhmGiaaJEokoYkWmqJpI4QipbqlPr/X43XP69P7fO7p/u79nHvuuffc85x5nc/+fr/er+d7385+gcDlOPbs2eM2b97s/vnnH7d7925HkPfff3938MEHu7p16+p5LiMnSYbU/fbbTwldtWqV++mnn9w777zjPvroIyUaNGnSxHXr1s2de+65rl27du6www5zNWrU0Ge5hpwjmeD8999/7q+//nJffvmle/bZZ93nn3/uCgoK9JmBSACqVavmevTo4fr27eu6d+/uateurc94196p9IDkXIKk4mDDhg3BM888Exx99NGBpM5AyAqqV68Ow6FwTwhWqVmzZnDEEUcEjzzySPDvv/8GEknUnVxBzpG8ZcuW4IUXXgiOOuooJVDKWz1CapRgiLd3OCdCSMoPdu7cGUhWT4xJuFq5kTMkQ8quXbuCOXPmBCeddFJIoC+Q64vd81N4ixYtgjVr1uQUydUkYDkBCYvbunWr+/TTT913332n14gQqc8lO3ZTp051s2fPdrNmzXKS2t0ZZ5zhJKsO3wG//fabu/vuuwvL43yZXLFAGfrVV18FRx55ZFJqRa688spg+fLlmtINO3bsCJYsWRL07t07TNEcyQEaNWoUbNu2LfFm5UfOpGRA82j16tVhKkYaNGjgRo0a5Y499tik9jDnxx9/vLvuuuuclN/6Lk0vRCpfbtq0aYk3Kz9yKrumXRxF165dlegoJOWq9OrVy51yyilhc8nInj59ul7nAnKGZAgmBRpZhuOOO87VqlVLifNhJEMqoFzmWrJrbWf/+eefej8XkDMkQ9KBBx5YhMyVK1c6KX+VuCggePu2bdpRwneQzBG3mjVrlnir8iOnSD7ooIOK9EPT20U5Hb0PpLbm5khtfMWKFYXXQjpEU+O++OKL9V4uIKfKZAYcyJ7Jci37/eOPP9zTTz/tfvzxxzBrBmTvS6WpNXny5JBkA9/Tr50ryJm+a7LjTZs2ufHjx7sxY8YooRAJ0chll13munTp4g4//HAlEdI/++wz7d+mLDcz8Kxfv37ajk6V+isjcoZkCIXo+fPnu/vuu899++23eh+CDXXq1HGHHHKIEvn7778ruQATmBl4jhvS3s4ZkglcTkAqTNoVSd+1ZM9B06ZNw04OITWpC9POfeEdITV44403tO8a93IFOUOyj40bNwYjR44MmjRpEpLK4APnCKRyj3OIhWDuTZkyRXvCcolgkJMkQxLdku+++27Qvn17JRgyjWQEYrnPsV27dsHs2bODzZs35xzBICdJJttGIIyUOXXq1KBVq1ZJJJNyO3furKn3HyGX93MVOdOE8iFZcdiEos17xRVXuLZt2yaeFkLCrlN/evfu7epK04v3cxW5G7I8QuRJrgLIk1wFkCe5CiBPchVAnuQqgDzJVQB5kqsAMkoyHQ6IYc+ePW7Xrl3h/fIQwDHVzBAQfb88pbyQMZL3Faga5byojF4vwDwvH9bDRcTLFny72DETSHs8eV+fM6/q119/1cnqO3fuDOdOZQP4PWLECJ0gYKhevbp2ad56661ZGzcmAmI/In7z5s1dy5YttRvWh0XSdJA2yRjQnLCB+wULFrilS5e6Tz75RFc0MGMjTW9yEkYgc9MuueQS7Us/4YQTdIowkxKxmfXDpwVITgdCsh6F3EBSbvDwww8HHTp0CFcTioKwm5cUgm3MRjZpoW3btsHo0aODxYsX64oP7JouYpMMuQhKMEz3xRdfBDfeeGM4bovydrRz/35eipJs1/Xr19flOyzeyxrJkGtjtsQ21hRJVqOKR0lEcVM+1fOqLkawkW3H2rVrB+eff34gxV24XtpyzdIidpnMZ8j27dvdtddeqysFU63mp1bbtGlTd+ihh2o5Y/fzKFy79fPPP7sNGzZoXUbI1ToOlUIEXHrppe6hhx7SdVtU0OLYLi2SqWjdeeed7tVXX9UaNIoaqEz07NnT3Xbbba5Vq1Zaa0RxAkFg8iicRozdNm7cqHPD33rrLbUPRJqNDjjgAPfoo4+6m266SeeVx0ogkBwHZB3z5s0LpDYYZj2igFa4GjZsGDz++OPB1q1bNTuPm81UFWAfpilJaySoU6dOUpHGOVtdzJ8/P7YdY5GMZ5THkooDiWmhQojEtmD48OFKLu/kUTJgU2zGfDQp4pJsShn99ttva0SIg9j5JlnMunXrtBw2kMV06tTJPfjgg2F2I34kldN5FI+TTz7ZXX/99YmrQmC/iRMnqs3jIDbJdHawP5ZPIOXu4MGD9WjlCkckj+KBjeh5a9GihRswYEBYyTLbzZ07N1zxUVrEIhmP2ZcDkn1QSbjgggvypKYJKq10cfokA79iWxrEIpnUyyLtLVu2JO4UApKtmZRHfLAeq2PHjkWKOpqr/nVJETslS0VBPfRjmp1HY2AepQNZdb169RJXhYkKe5drSjZEY1oeZQezq2/fuAknLZLzqBzYJ8n0ZhGL6Hr7+++/dT0vR4TNSck6rOutrCDtRM2W6AViPNqALpT/bMaGv7xj+oFt27bpsayB+/iDf1Y82X308Rev25H3CYddpwtroVDfMfubsL0zQvgtO8df/AfcU8jNJMiDYO3atYG01bTnis6NunXrak+ML3SCWMc6ziDNmzfX75HSQhQMO1A437Rpk/aaNWvWTHXATymnVNgYdezYsfoO77KeOBMgHOizW/xgGHXUqFG6GRz2QA87so8nQ6zr16/XMKAP38WFtFqCG264QW2L0BnC6J7UuovwgGCfBg0aBIMGDQrWrVsX/Cc6ALNLEskEatasWbo3JQ4bgZwjRqaJTzCSDslqTBGWnE6ePFmVxk8ikvlvYv4yJDd9+vTg361bE66ULSyyvfTSS0Hr1q1D/y3spoedEyEnTpyo3bnpwCfZ3OdofkfF/EfQc+nSpUmRPyQZYlauXBn07NkzyQGMTCwyj4qT0pLMeyiDcC7NsmDgwIEaY313zW8LiH9OwIcNGxZIsaKRhJRUUv9TATfQhyPrlZ944omUxrVczPRBTB+2VJYiba8epdQnSjJu+v5E/YveP+2003THBcIAlGSU4QYpiOzHXsYRE98RBMejHsQhGX8RKWOCESNGaOr03UTM/6gupgNFB2QUFBSEAYuNhE5EGvbMrlmzpvrh+2t6IL4NLEHwzbhx43TvbAtfaRDNrn0xv3w9Ut1jn1EiPAgrXmJwnYtFQW6Q5zpMePrpp+uOshxNmHjG83QgymjFAndmzpzppkyZkuQ/4HmjRo3ciSeeqB0EnIsxk5oTVNTYoX7evHlpt88JEbZgdyDbRQgdfKADffRSrLnGjRuHfgqZYcVL6hO6OQ3n0e9LC3TAD/YAlVSaxAPXjNX74F32EzW9wmmKBAyJggkBffr0SSZUzp+bMMG99tprGqh0gLt0vLOXJbvnGejHRRiTJoIxwQ18//33OkFhzpw5YY8bpFP7Z3snAk5NNB1AjJTD7pdffkkKN715bOJ29tlnu86dO+u9JUuW6ITFDz/8UHukzIa0QP43eXL4XrrA3bvuukvD50dk7jOe/9xzz+m1RYhFixbtjVxyUyEKalnCLRN5OXjllVdSZr8MJzJ27L8fp+LFu2Ig3dvDd4ss74477pDa4lp9hyyPigRZkBAddOvWrYj/7P1BNpUO8IuymBor4Te38evmm28OJIWHZTbC+Q8//BAMHDBAs2t7n29xw+oKpUG0TDb5+uuvU9qWlob/Ht9J6k48rQDbSYgOToyUlIoBnfRDhgxxLVu2CmOnSZs2bXS2BCM2XANiLamZKcDpgm0aaZPjr4GskhyNrBG/LJXgP3t+3dC/v07R8UH7lek96RUg6eP/JZnAmCF9mMHLAnR8+J0fgL/xwaDmD0K2bPpQFkW3OMaoTOb3yYkDSTFFiq4LL7zQdejQISQX+HqhL/OmfeAGu/7JS4k72UGxJBOATMMMFSXGUqkJ8K8RJgka6XxP/UCyT72OC8kPdT/OqBtMRpTsV+sJ9oyjnfMnYvzXlP8dJK9fvz7tSFccSuJ21rNrDAE5UUSz71Sgy5VvzbAQDvHpGLWapMrWrVsXcQN9KA6i97kmDMy45I/G7LkdKVr81J8NZNV3DIFQa+VPt3zQ/KAZgwHNkICUSu33448/1v5bwDMMSTlODmAGjgO+veiii5JSJOAf4mwtleni64S+1LB9oBNZOM+ziaynZAzB2h/awVGwPojUQXmN0TEqzZSl0mwZPmyYlr8GUjR/xXf55ZenlXLwh9yAgXsflPcvvviitsVplxMZeBfdpEbvpBWiqdnAs/r162s2TpmdTWSVZAyBUGk59dRTdbDcAFGQSKpiT2raxdScOe/br59bLET7gBg2ZKOmmw4gD7fuvffepMjCfXIP+g3oHzB9Xn/9dZ14995774UpG0Ds7bffHs53yypEeUWqdrIEMpCGduKNZNAFSVvWfz+dAYoZM2YEHTt2DLsqcU+Mk9RW5D5tUYR2K9f2juQEulyHdms6MP1p+3bq1CnUA/8QX5+oblF9li1bFqsvvTTtZK4rfDvZQBOFP92iG1WU1Huin4pBAqTZMmLdhaT+evXqacrjb4H89+MCNyjbaadTcUIfqwv47kd1Qx9q3/TODR06VCtw3CsLndJBhSEZQ15zzTW6WJyy1YguDhiQf24bPXq069e3r2aRJfmuJKAiSMQbJmU/9YWSutu+fXt3//33a30i3Zp+WaFCkYxhJZtykyZN0rnHkAaRZmCOdk5ZN3DgQPfUU0+5W265Re+Ting/HZgfCBUnNl8lEqEXlTH8RS97F/8gk44Z/p6Xd6+66irNXXy3sokKQzLAGDSnqGw9OnKkDlpAOP8fwR+IkHVSe54wYYI+Y6UGqY2sUj4O3UgX5ga/dICcddZZTuorWrliYRqDFOhyzDHHaIp98skn3fvvv+8ee+wxbTLxjX4v7viRNGuQ7ESR7YpXKkjZq2OyUsvWf0JdvXq1TsNh9ggVGipZvLOzoCDxRdnDwmLh8vVB0Id79hx97Ju4yNmKVyqQCsjC6VLkX2CoyPCnXKR2smbLzmtIFpophKlajoivD4I+3LPnFSLlRlChSc6jbJBEckWLgXnEh89lSHIqgiU733u/AjQFqiJ8XqIcwc++kJLkfQGHVPzzhORRPkhFbnE8cI9v7Fmx2TXXzHOiD5nOd44m0ZkTeWQWVDLXrl0b7nKIcA4/zCfzUYRHIQpol924cePc8OHDE48KwYxEm0TnY/HixW7ZsmVJnfLM4GSQHEQ9yhTQHZSXf+UBpgzBA4MfhI+wUWs/88wzw25f7pvt4YEJhQae038wY8aMQrvAMG0t2pzMM2YOs7xXpI1WEinrdnJJQds0E7CwlHd49tVOLqnQv8HKErNLUnZtc3qJNZUBon/iLDPItPuZAjkvqV5TsUDZ5AJi6YinH5gxWbsHrK/WwDOTbIKNabp27arzsplzHR0lAnatR+8Z1/ZMUmp4bmDFImPXRPxevXrphLzoO+UBONiXnaP34Yk+c2xRp04dt9tmpIjiSaC7cO7cucE555wTzmsWx5LW/iBkCQjPTcojuzb3yYoY790/sU6LYoZFckJKMGnSJJ0fvSOxJZJ9Q9j87znac95lDPnll18OunTpoisWa9eurTbAD1Z58jxTRYOPVNl11P5RQUdJvcGCBQu8cBfqWmRHPglwWKCvWbNGK1KWQixli6M6O+LNN99M2uIp0xUvX1Um1jGQYfqZf3R3AsJgc77ImRhQoDuSkSWeMQmQb3GHedacW4vB/DE3OZJCWFXBqJTZIVPwK16+HVklwaCIrxdgFIyNZLA/4+voT6pmDFztITeSYJ3+gBgejfEmQ4YMSVoxgJRXxQudpOmg64IloEkzMqKCXna0c6QaksiNTKLvWerhyJLQDz74QFdxZDp8fko2vTguXLgw5COqA9c8859zDopESWKAOKjn4nhSmcDRhBjCu9kAOhFrzzvvPC17JEDhfXSTcCWlSDsCuy8mCnMtE+5b2AHXhJMFbtRV2EiNMJs9ygOmF0chLYkDH1yju9nArkFm850MgwkDgwYN0sl1rG6A8LIAxsEtZnlcffXVmnXyNwYNGzYsYtzKgNi75DJgz9JOpqcaMl0mpwLlDkFg9iR/i0APELVu6hMcWflIKigO6MpAP0OHrHmiHKfTgY4gJgwwlGhm4uin9kzAL5MN+MvUX6Yvl9a2sUlmLtbYsWOLkIyRMSqKlGesJxhkZ8yPpruPLkBIpoJlWV5BwQ7Rt7ASSWXFNpbzSaaSBsksfy1P/X3si2TWaFFklFov+TgWmEUS3fahcePGYYHPsTyBf+a3779/b8eO7bqfB0Izw74x2LV/LxtYsWKFLs0VMkPbcr5o0aJYusXOd4jtNEd8sJqAlGyFf3kC/xD89v3379WqdYA2qxBSclRHcyMbEC7CI4vy2buUSp5VcNE/bu4Si2QUoaeJ9bi+p7SZbfcBU7qiI5XRskE0fkoq1Ta/NKF071KuEUm+Sa2e0iLWVyjEfCumofpkoiDlCOViNgxV2UHiYEiX/UYsoajIM5pw1O7jIHZKZv4xtU9/ITj3GfZi2ix9v34EyKN4YCsSx/PPP6/DhpZySSwULeydUr/+3k1VSwVxvNSwigw9M5JtJ/UMSRmiu8T16dMn+Oabb5L2s+IbetS4rspi4Bx7sK/I8uXLg759+4a2RIRkve7evbtWxrBfHMRqQvGJfcbWSmQvVBb8+1QY6E/t37+/lt/ERglUPhv3YLZiV3r+foAdDuh7tr9eIiVTwcXGPXr0UNvFKZdjk2yEIQ888IBmM2Q3poQ94z3eh3Q6LsiGuFeVgV0AdjHzYx/KYY424MIeYWzrRK9eWr1t4klaIMshS5bGu66oIHshm8HpvJROhMSw2JNcMBg6dKiu0kgXaZMMKFck9gVjx4zRHWwhOU906QWCGb+Wpmkwfvz4YNWqVbHLYR9lQjKKkKIZhmMx+T333BM0adJElY4GJE/+3hQbPacHcfDgwcHMmTN1wzirpKaL2H3X+wLlLRUI9vpgY5dp06a5hQsXhgMFVCwoc6oyhFQ9Un9h8IN9OvnD7kNbtXLHtWmj5S91l7JCmZMMzElqiQwQUCGDYMAzC2Qee4mmixhiq4ltsB73ywoZScmmYNTpPLmFMLtgD84RbEbrg9p1WSMjKTmPioWyyxPyqLDIk5zzcO7/APrT8VeA1D3oAAAAAElFTkSuQmCC;" vertex="1" parent="hvz59eMdP9MXctziR_3p-1">
          <mxGeometry x="458" y="140" width="23.73" height="20" as="geometry" />
        </mxCell>
        <mxCell id="hvz59eMdP9MXctziR_3p-18" value="" style="shape=image;verticalLabelPosition=bottom;labelBackgroundColor=default;verticalAlign=top;aspect=fixed;imageAspect=0;image=data:image/png,iVBORw0KGgoAAAANSUhEUgAAAHkAAABmCAYAAADvej4HAAAAAXNSR0IArs4c6QAAAARnQU1BAACxjwv8YQUAAAAJcEhZcwAADsMAAA7DAcdvqGQAABU0SURBVHhe7Z15sNXz/8ffSkVKpX1B9mijkCVrthApg5SUJfxhyTJtZhCj0YJQmr62wVhmGiaaJEokoYkWmqJpI4QipbqlPr/X43XP69P7fO7p/u79nHvuuffc85x5nc/+fr/er+d7385+gcDlOPbs2eM2b97s/vnnH7d7925HkPfff3938MEHu7p16+p5LiMnSYbU/fbbTwldtWqV++mnn9w777zjPvroIyUaNGnSxHXr1s2de+65rl27du6www5zNWrU0Ge5hpwjmeD8999/7q+//nJffvmle/bZZ93nn3/uCgoK9JmBSACqVavmevTo4fr27eu6d+/uateurc94196p9IDkXIKk4mDDhg3BM888Exx99NGBpM5AyAqqV68Ow6FwTwhWqVmzZnDEEUcEjzzySPDvv/8GEknUnVxBzpG8ZcuW4IUXXgiOOuooJVDKWz1CapRgiLd3OCdCSMoPdu7cGUhWT4xJuFq5kTMkQ8quXbuCOXPmBCeddFJIoC+Q64vd81N4ixYtgjVr1uQUydUkYDkBCYvbunWr+/TTT913332n14gQqc8lO3ZTp051s2fPdrNmzXKS2t0ZZ5zhJKsO3wG//fabu/vuuwvL43yZXLFAGfrVV18FRx55ZFJqRa688spg+fLlmtINO3bsCJYsWRL07t07TNEcyQEaNWoUbNu2LfFm5UfOpGRA82j16tVhKkYaNGjgRo0a5Y499tik9jDnxx9/vLvuuuuclN/6Lk0vRCpfbtq0aYk3Kz9yKrumXRxF165dlegoJOWq9OrVy51yyilhc8nInj59ul7nAnKGZAgmBRpZhuOOO87VqlVLifNhJEMqoFzmWrJrbWf/+eefej8XkDMkQ9KBBx5YhMyVK1c6KX+VuCggePu2bdpRwneQzBG3mjVrlnir8iOnSD7ooIOK9EPT20U5Hb0PpLbm5khtfMWKFYXXQjpEU+O++OKL9V4uIKfKZAYcyJ7Jci37/eOPP9zTTz/tfvzxxzBrBmTvS6WpNXny5JBkA9/Tr50ryJm+a7LjTZs2ufHjx7sxY8YooRAJ0chll13munTp4g4//HAlEdI/++wz7d+mLDcz8Kxfv37ajk6V+isjcoZkCIXo+fPnu/vuu899++23eh+CDXXq1HGHHHKIEvn7778ruQATmBl4jhvS3s4ZkglcTkAqTNoVSd+1ZM9B06ZNw04OITWpC9POfeEdITV44403tO8a93IFOUOyj40bNwYjR44MmjRpEpLK4APnCKRyj3OIhWDuTZkyRXvCcolgkJMkQxLdku+++27Qvn17JRgyjWQEYrnPsV27dsHs2bODzZs35xzBICdJJttGIIyUOXXq1KBVq1ZJJJNyO3furKn3HyGX93MVOdOE8iFZcdiEos17xRVXuLZt2yaeFkLCrlN/evfu7epK04v3cxW5G7I8QuRJrgLIk1wFkCe5CiBPchVAnuQqgDzJVQB5kqsAMkoyHQ6IYc+ePW7Xrl3h/fIQwDHVzBAQfb88pbyQMZL3Faga5byojF4vwDwvH9bDRcTLFny72DETSHs8eV+fM6/q119/1cnqO3fuDOdOZQP4PWLECJ0gYKhevbp2ad56661ZGzcmAmI/In7z5s1dy5YttRvWh0XSdJA2yRjQnLCB+wULFrilS5e6Tz75RFc0MGMjTW9yEkYgc9MuueQS7Us/4YQTdIowkxKxmfXDpwVITgdCsh6F3EBSbvDwww8HHTp0CFcTioKwm5cUgm3MRjZpoW3btsHo0aODxYsX64oP7JouYpMMuQhKMEz3xRdfBDfeeGM4bovydrRz/35eipJs1/Xr19flOyzeyxrJkGtjtsQ21hRJVqOKR0lEcVM+1fOqLkawkW3H2rVrB+eff34gxV24XtpyzdIidpnMZ8j27dvdtddeqysFU63mp1bbtGlTd+ihh2o5Y/fzKFy79fPPP7sNGzZoXUbI1ToOlUIEXHrppe6hhx7SdVtU0OLYLi2SqWjdeeed7tVXX9UaNIoaqEz07NnT3Xbbba5Vq1Zaa0RxAkFg8iicRozdNm7cqHPD33rrLbUPRJqNDjjgAPfoo4+6m266SeeVx0ogkBwHZB3z5s0LpDYYZj2igFa4GjZsGDz++OPB1q1bNTuPm81UFWAfpilJaySoU6dOUpHGOVtdzJ8/P7YdY5GMZ5THkooDiWmhQojEtmD48OFKLu/kUTJgU2zGfDQp4pJsShn99ttva0SIg9j5JlnMunXrtBw2kMV06tTJPfjgg2F2I34kldN5FI+TTz7ZXX/99YmrQmC/iRMnqs3jIDbJdHawP5ZPIOXu4MGD9WjlCkckj+KBjeh5a9GihRswYEBYyTLbzZ07N1zxUVrEIhmP2ZcDkn1QSbjgggvypKYJKq10cfokA79iWxrEIpnUyyLtLVu2JO4UApKtmZRHfLAeq2PHjkWKOpqr/nVJETslS0VBPfRjmp1HY2AepQNZdb169RJXhYkKe5drSjZEY1oeZQezq2/fuAknLZLzqBzYJ8n0ZhGL6Hr7+++/dT0vR4TNSck6rOutrCDtRM2W6AViPNqALpT/bMaGv7xj+oFt27bpsayB+/iDf1Y82X308Rev25H3CYddpwtroVDfMfubsL0zQvgtO8df/AfcU8jNJMiDYO3atYG01bTnis6NunXrak+ML3SCWMc6ziDNmzfX75HSQhQMO1A437Rpk/aaNWvWTHXATymnVNgYdezYsfoO77KeOBMgHOizW/xgGHXUqFG6GRz2QA87so8nQ6zr16/XMKAP38WFtFqCG264QW2L0BnC6J7UuovwgGCfBg0aBIMGDQrWrVsX/Cc6ALNLEskEatasWbo3JQ4bgZwjRqaJTzCSDslqTBGWnE6ePFmVxk8ikvlvYv4yJDd9+vTg361bE66ULSyyvfTSS0Hr1q1D/y3spoedEyEnTpyo3bnpwCfZ3OdofkfF/EfQc+nSpUmRPyQZYlauXBn07NkzyQGMTCwyj4qT0pLMeyiDcC7NsmDgwIEaY313zW8LiH9OwIcNGxZIsaKRhJRUUv9TATfQhyPrlZ944omUxrVczPRBTB+2VJYiba8epdQnSjJu+v5E/YveP+2003THBcIAlGSU4QYpiOzHXsYRE98RBMejHsQhGX8RKWOCESNGaOr03UTM/6gupgNFB2QUFBSEAYuNhE5EGvbMrlmzpvrh+2t6IL4NLEHwzbhx43TvbAtfaRDNrn0xv3w9Ut1jn1EiPAgrXmJwnYtFQW6Q5zpMePrpp+uOshxNmHjG83QgymjFAndmzpzppkyZkuQ/4HmjRo3ciSeeqB0EnIsxk5oTVNTYoX7evHlpt88JEbZgdyDbRQgdfKADffRSrLnGjRuHfgqZYcVL6hO6OQ3n0e9LC3TAD/YAlVSaxAPXjNX74F32EzW9wmmKBAyJggkBffr0SSZUzp+bMMG99tprGqh0gLt0vLOXJbvnGejHRRiTJoIxwQ18//33OkFhzpw5YY8bpFP7Z3snAk5NNB1AjJTD7pdffkkKN715bOJ29tlnu86dO+u9JUuW6ITFDz/8UHukzIa0QP43eXL4XrrA3bvuukvD50dk7jOe/9xzz+m1RYhFixbtjVxyUyEKalnCLRN5OXjllVdSZr8MJzJ27L8fp+LFu2Ig3dvDd4ss74477pDa4lp9hyyPigRZkBAddOvWrYj/7P1BNpUO8IuymBor4Te38evmm28OJIWHZTbC+Q8//BAMHDBAs2t7n29xw+oKpUG0TDb5+uuvU9qWlob/Ht9J6k48rQDbSYgOToyUlIoBnfRDhgxxLVu2CmOnSZs2bXS2BCM2XANiLamZKcDpgm0aaZPjr4GskhyNrBG/LJXgP3t+3dC/v07R8UH7lek96RUg6eP/JZnAmCF9mMHLAnR8+J0fgL/xwaDmD0K2bPpQFkW3OMaoTOb3yYkDSTFFiq4LL7zQdejQISQX+HqhL/OmfeAGu/7JS4k72UGxJBOATMMMFSXGUqkJ8K8RJgka6XxP/UCyT72OC8kPdT/OqBtMRpTsV+sJ9oyjnfMnYvzXlP8dJK9fvz7tSFccSuJ21rNrDAE5UUSz71Sgy5VvzbAQDvHpGLWapMrWrVsXcQN9KA6i97kmDMy45I/G7LkdKVr81J8NZNV3DIFQa+VPt3zQ/KAZgwHNkICUSu33448/1v5bwDMMSTlODmAGjgO+veiii5JSJOAf4mwtleni64S+1LB9oBNZOM+ziaynZAzB2h/awVGwPojUQXmN0TEqzZSl0mwZPmyYlr8GUjR/xXf55ZenlXLwh9yAgXsflPcvvviitsVplxMZeBfdpEbvpBWiqdnAs/r162s2TpmdTWSVZAyBUGk59dRTdbDcAFGQSKpiT2raxdScOe/br59bLET7gBg2ZKOmmw4gD7fuvffepMjCfXIP+g3oHzB9Xn/9dZ14995774UpG0Ds7bffHs53yypEeUWqdrIEMpCGduKNZNAFSVvWfz+dAYoZM2YEHTt2DLsqcU+Mk9RW5D5tUYR2K9f2juQEulyHdms6MP1p+3bq1CnUA/8QX5+oblF9li1bFqsvvTTtZK4rfDvZQBOFP92iG1WU1Huin4pBAqTZMmLdhaT+evXqacrjb4H89+MCNyjbaadTcUIfqwv47kd1Qx9q3/TODR06VCtw3CsLndJBhSEZQ15zzTW6WJyy1YguDhiQf24bPXq069e3r2aRJfmuJKAiSMQbJmU/9YWSutu+fXt3//33a30i3Zp+WaFCkYxhJZtykyZN0rnHkAaRZmCOdk5ZN3DgQPfUU0+5W265Re+Ting/HZgfCBUnNl8lEqEXlTH8RS97F/8gk44Z/p6Xd6+66irNXXy3sokKQzLAGDSnqGw9OnKkDlpAOP8fwR+IkHVSe54wYYI+Y6UGqY2sUj4O3UgX5ga/dICcddZZTuorWrliYRqDFOhyzDHHaIp98skn3fvvv+8ee+wxbTLxjX4v7viRNGuQ7ESR7YpXKkjZq2OyUsvWf0JdvXq1TsNh9ggVGipZvLOzoCDxRdnDwmLh8vVB0Id79hx97Ju4yNmKVyqQCsjC6VLkX2CoyPCnXKR2smbLzmtIFpophKlajoivD4I+3LPnFSLlRlChSc6jbJBEckWLgXnEh89lSHIqgiU733u/AjQFqiJ8XqIcwc++kJLkfQGHVPzzhORRPkhFbnE8cI9v7Fmx2TXXzHOiD5nOd44m0ZkTeWQWVDLXrl0b7nKIcA4/zCfzUYRHIQpol924cePc8OHDE48KwYxEm0TnY/HixW7ZsmVJnfLM4GSQHEQ9yhTQHZSXf+UBpgzBA4MfhI+wUWs/88wzw25f7pvt4YEJhQae038wY8aMQrvAMG0t2pzMM2YOs7xXpI1WEinrdnJJQds0E7CwlHd49tVOLqnQv8HKErNLUnZtc3qJNZUBon/iLDPItPuZAjkvqV5TsUDZ5AJi6YinH5gxWbsHrK/WwDOTbIKNabp27arzsplzHR0lAnatR+8Z1/ZMUmp4bmDFImPXRPxevXrphLzoO+UBONiXnaP34Yk+c2xRp04dt9tmpIjiSaC7cO7cucE555wTzmsWx5LW/iBkCQjPTcojuzb3yYoY790/sU6LYoZFckJKMGnSJJ0fvSOxJZJ9Q9j87znac95lDPnll18OunTpoisWa9eurTbAD1Z58jxTRYOPVNl11P5RQUdJvcGCBQu8cBfqWmRHPglwWKCvWbNGK1KWQixli6M6O+LNN99M2uIp0xUvX1Um1jGQYfqZf3R3AsJgc77ImRhQoDuSkSWeMQmQb3GHedacW4vB/DE3OZJCWFXBqJTZIVPwK16+HVklwaCIrxdgFIyNZLA/4+voT6pmDFztITeSYJ3+gBgejfEmQ4YMSVoxgJRXxQudpOmg64IloEkzMqKCXna0c6QaksiNTKLvWerhyJLQDz74QFdxZDp8fko2vTguXLgw5COqA9c8859zDopESWKAOKjn4nhSmcDRhBjCu9kAOhFrzzvvPC17JEDhfXSTcCWlSDsCuy8mCnMtE+5b2AHXhJMFbtRV2EiNMJs9ygOmF0chLYkDH1yju9nArkFm850MgwkDgwYN0sl1rG6A8LIAxsEtZnlcffXVmnXyNwYNGzYsYtzKgNi75DJgz9JOpqcaMl0mpwLlDkFg9iR/i0APELVu6hMcWflIKigO6MpAP0OHrHmiHKfTgY4gJgwwlGhm4uin9kzAL5MN+MvUX6Yvl9a2sUlmLtbYsWOLkIyRMSqKlGesJxhkZ8yPpruPLkBIpoJlWV5BwQ7Rt7ASSWXFNpbzSaaSBsksfy1P/X3si2TWaFFklFov+TgWmEUS3fahcePGYYHPsTyBf+a3779/b8eO7bqfB0Izw74x2LV/LxtYsWKFLs0VMkPbcr5o0aJYusXOd4jtNEd8sJqAlGyFf3kC/xD89v3379WqdYA2qxBSclRHcyMbEC7CI4vy2buUSp5VcNE/bu4Si2QUoaeJ9bi+p7SZbfcBU7qiI5XRskE0fkoq1Ta/NKF071KuEUm+Sa2e0iLWVyjEfCumofpkoiDlCOViNgxV2UHiYEiX/UYsoajIM5pw1O7jIHZKZv4xtU9/ITj3GfZi2ix9v34EyKN4YCsSx/PPP6/DhpZySSwULeydUr/+3k1VSwVxvNSwigw9M5JtJ/UMSRmiu8T16dMn+Oabb5L2s+IbetS4rspi4Bx7sK/I8uXLg759+4a2RIRkve7evbtWxrBfHMRqQvGJfcbWSmQvVBb8+1QY6E/t37+/lt/ERglUPhv3YLZiV3r+foAdDuh7tr9eIiVTwcXGPXr0UNvFKZdjk2yEIQ888IBmM2Q3poQ94z3eh3Q6LsiGuFeVgV0AdjHzYx/KYY424MIeYWzrRK9eWr1t4klaIMshS5bGu66oIHshm8HpvJROhMSw2JNcMBg6dKiu0kgXaZMMKFck9gVjx4zRHWwhOU906QWCGb+Wpmkwfvz4YNWqVbHLYR9lQjKKkKIZhmMx+T333BM0adJElY4GJE/+3hQbPacHcfDgwcHMmTN1wzirpKaL2H3X+wLlLRUI9vpgY5dp06a5hQsXhgMFVCwoc6oyhFQ9Un9h8IN9OvnD7kNbtXLHtWmj5S91l7JCmZMMzElqiQwQUCGDYMAzC2Qee4mmixhiq4ltsB73ywoZScmmYNTpPLmFMLtgD84RbEbrg9p1WSMjKTmPioWyyxPyqLDIk5zzcO7/APrT8VeA1D3oAAAAAElFTkSuQmCC;" vertex="1" parent="hvz59eMdP9MXctziR_3p-1">
          <mxGeometry x="458" y="50" width="23.73" height="20" as="geometry" />
        </mxCell>
        <mxCell id="hvz59eMdP9MXctziR_3p-19" style="edgeStyle=orthogonalEdgeStyle;rounded=0;sketch=1;hachureGap=4;jiggle=2;curveFitting=1;orthogonalLoop=1;jettySize=auto;html=1;fontFamily=Architects Daughter;fontSource=https%3A%2F%2Ffonts.googleapis.com%2Fcss%3Ffamily%3DArchitects%2BDaughter;exitX=1.017;exitY=0.594;exitDx=0;exitDy=0;exitPerimeter=0;entryX=0;entryY=0.5;entryDx=0;entryDy=0;" edge="1" parent="hvz59eMdP9MXctziR_3p-1" source="gKmjX8MdPXmVmAsPy0Cx-0" target="rcz2kjM6Kx2Q1MhqM1Ag-2">
          <mxGeometry relative="1" as="geometry">
            <mxPoint x="248" y="100" as="sourcePoint" />
            <mxPoint x="318" y="140" as="targetPoint" />
            <Array as="points">
              <mxPoint x="220" y="60" />
              <mxPoint x="272" y="60" />
              <mxPoint x="272" y="140" />
            </Array>
          </mxGeometry>
        </mxCell>
        <mxCell id="hvz59eMdP9MXctziR_3p-20" style="edgeStyle=orthogonalEdgeStyle;rounded=0;sketch=1;hachureGap=4;jiggle=2;curveFitting=1;orthogonalLoop=1;jettySize=auto;html=1;fontFamily=Architects Daughter;fontSource=https%3A%2F%2Ffonts.googleapis.com%2Fcss%3Ffamily%3DArchitects%2BDaughter;entryX=-0.023;entryY=0.522;entryDx=0;entryDy=0;entryPerimeter=0;" edge="1" parent="hvz59eMdP9MXctziR_3p-1" target="rcz2kjM6Kx2Q1MhqM1Ag-3" source="gKmjX8MdPXmVmAsPy0Cx-0">
          <mxGeometry relative="1" as="geometry">
            <mxPoint x="218" y="50" as="sourcePoint" />
            <mxPoint x="308" y="50" as="targetPoint" />
          </mxGeometry>
        </mxCell>
        <mxCell id="hvz59eMdP9MXctziR_3p-21" value="REST" style="edgeLabel;html=1;align=center;verticalAlign=middle;resizable=0;points=[];sketch=1;hachureGap=4;jiggle=2;curveFitting=1;fontFamily=Architects Daughter;fontSource=https%3A%2F%2Ffonts.googleapis.com%2Fcss%3Ffamily%3DArchitects%2BDaughter;" vertex="1" connectable="0" parent="hvz59eMdP9MXctziR_3p-20">
          <mxGeometry x="-0.7739" relative="1" as="geometry">
            <mxPoint x="18" as="offset" />
          </mxGeometry>
        </mxCell>
        <mxCell id="hvz59eMdP9MXctziR_3p-22" value="Game client&lt;div&gt;&lt;span style=&quot;background-color: transparent; color: light-dark(rgb(0, 0, 0), rgb(255, 255, 255)); font-size: 9px;&quot;&gt;&lt;br&gt;&lt;/span&gt;&lt;/div&gt;&lt;div&gt;&lt;span style=&quot;background-color: transparent; color: light-dark(rgb(0, 0, 0), rgb(255, 255, 255)); font-size: 9px;&quot;&gt;Blazor @ static web&lt;/span&gt;&lt;/div&gt;&lt;div&gt;&lt;span style=&quot;font-size: 9px;&quot;&gt;Signal R Client&lt;/span&gt;&lt;/div&gt;" style="rounded=0;whiteSpace=wrap;html=1;sketch=1;hachureGap=4;jiggle=2;curveFitting=1;fontFamily=Architects Daughter;fontSource=https%3A%2F%2Ffonts.googleapis.com%2Fcss%3Ffamily%3DArchitects%2BDaughter;" vertex="1" parent="hvz59eMdP9MXctziR_3p-1">
          <mxGeometry x="98" y="160" width="120" height="80" as="geometry" />
        </mxCell>
        <mxCell id="gKmjX8MdPXmVmAsPy0Cx-0" value="Game monitor&lt;div&gt;&lt;span style=&quot;font-size: 9px;&quot;&gt;&lt;br&gt;&lt;/span&gt;&lt;/div&gt;&lt;div&gt;&lt;span style=&quot;font-size: 9px;&quot;&gt;Blazor @ static web&lt;/span&gt;&lt;br style=&quot;font-size: 9px;&quot;&gt;&lt;span style=&quot;font-size: 9px;&quot;&gt;SignalR Hub&lt;/span&gt;&lt;/div&gt;" style="rounded=0;whiteSpace=wrap;html=1;sketch=1;hachureGap=4;jiggle=2;curveFitting=1;fontFamily=Architects Daughter;fontSource=https%3A%2F%2Ffonts.googleapis.com%2Fcss%3Ffamily%3DArchitects%2BDaughter;" vertex="1" parent="hvz59eMdP9MXctziR_3p-1">
          <mxGeometry x="98" y="20" width="120" height="80" as="geometry" />
        </mxCell>
        <mxCell id="rcz2kjM6Kx2Q1MhqM1Ag-0" value="Game monitor&lt;div&gt;&lt;span style=&quot;font-size: 9px;&quot;&gt;&lt;br&gt;&lt;/span&gt;&lt;/div&gt;&lt;div&gt;&lt;span style=&quot;font-size: 9px;&quot;&gt;Blazor @ static web&lt;/span&gt;&lt;br style=&quot;font-size: 9px;&quot;&gt;&lt;span style=&quot;font-size: 9px;&quot;&gt;SignalR Hub&lt;/span&gt;&lt;/div&gt;" style="rounded=0;whiteSpace=wrap;html=1;sketch=1;hachureGap=4;jiggle=2;curveFitting=1;fontFamily=Architects Daughter;fontSource=https%3A%2F%2Ffonts.googleapis.com%2Fcss%3Ffamily%3DArchitects%2BDaughter;fillColor=#f5f5f5;fontColor=#333333;strokeColor=#666666;" vertex="1" parent="hvz59eMdP9MXctziR_3p-1">
          <mxGeometry x="98" y="20" width="120" height="80" as="geometry" />
        </mxCell>
        <mxCell id="rcz2kjM6Kx2Q1MhqM1Ag-2" value="Example bot&amp;nbsp;&lt;span style=&quot;background-color: transparent; color: light-dark(rgb(0, 0, 0), rgb(255, 255, 255));&quot;&gt;server&lt;/span&gt;&lt;div&gt;&lt;span style=&quot;font-size: 9px; background-color: transparent; color: light-dark(rgb(0, 0, 0), rgb(255, 255, 255));&quot;&gt;REST API @ static web&lt;/span&gt;&lt;/div&gt;" style="rounded=0;whiteSpace=wrap;html=1;sketch=1;hachureGap=4;jiggle=2;curveFitting=1;fontFamily=Architects Daughter;fontSource=https%3A%2F%2Ffonts.googleapis.com%2Fcss%3Ffamily%3DArchitects%2BDaughter;fillColor=#f5f5f5;fontColor=#333333;strokeColor=#666666;" vertex="1" parent="hvz59eMdP9MXctziR_3p-1">
          <mxGeometry x="328" y="110" width="118" height="60" as="geometry" />
        </mxCell>
        <mxCell id="rcz2kjM6Kx2Q1MhqM1Ag-3" value="Bring your&lt;div&gt;own bot server&lt;/div&gt;&lt;div&gt;&lt;span style=&quot;font-size: 9px; background-color: transparent; color: light-dark(rgb(0, 0, 0), rgb(255, 255, 255));&quot;&gt;REST API&lt;/span&gt;&lt;/div&gt;" style="rounded=0;whiteSpace=wrap;html=1;sketch=1;hachureGap=4;jiggle=2;curveFitting=1;fontFamily=Architects Daughter;fontSource=https%3A%2F%2Ffonts.googleapis.com%2Fcss%3Ffamily%3DArchitects%2BDaughter;fillColor=#f5f5f5;fontColor=#333333;strokeColor=#666666;" vertex="1" parent="hvz59eMdP9MXctziR_3p-1">
          <mxGeometry x="328" y="30" width="118" height="60" as="geometry" />
        </mxCell>
        <mxCell id="rcz2kjM6Kx2Q1MhqM1Ag-1" value="Game client&lt;div&gt;&lt;span style=&quot;background-color: transparent; color: light-dark(rgb(0, 0, 0), rgb(255, 255, 255)); font-size: 9px;&quot;&gt;&lt;br&gt;&lt;/span&gt;&lt;/div&gt;&lt;div&gt;&lt;span style=&quot;background-color: transparent; color: light-dark(rgb(0, 0, 0), rgb(255, 255, 255)); font-size: 9px;&quot;&gt;Blazor @ static web&lt;/span&gt;&lt;/div&gt;&lt;div&gt;&lt;span style=&quot;font-size: 9px;&quot;&gt;Signal R Client&lt;/span&gt;&lt;/div&gt;" style="rounded=0;whiteSpace=wrap;html=1;sketch=1;hachureGap=4;jiggle=2;curveFitting=1;fontFamily=Architects Daughter;fontSource=https%3A%2F%2Ffonts.googleapis.com%2Fcss%3Ffamily%3DArchitects%2BDaughter;fillColor=#f5f5f5;fontColor=#333333;strokeColor=#666666;" vertex="1" parent="hvz59eMdP9MXctziR_3p-1">
          <mxGeometry x="98" y="160" width="120" height="80" as="geometry" />
        </mxCell>
        <mxCell id="hvz59eMdP9MXctziR_3p-8" value="" style="group" vertex="1" connectable="0" parent="hvz59eMdP9MXctziR_3p-1">
          <mxGeometry x="17.999999999999915" y="183.75" width="67.82000000000005" height="32.5" as="geometry" />
        </mxCell>
        <mxCell id="hvz59eMdP9MXctziR_3p-9" value="" style="sketch=0;pointerEvents=1;shadow=0;dashed=0;html=1;strokeColor=none;fillColor=#505050;labelPosition=center;verticalLabelPosition=bottom;verticalAlign=top;outlineConnect=0;align=center;shape=mxgraph.office.devices.cell_phone_android_proportional;hachureGap=4;jiggle=2;curveFitting=1;fontFamily=Architects Daughter;fontSource=https%3A%2F%2Ffonts.googleapis.com%2Fcss%3Ffamily%3DArchitects%2BDaughter;" vertex="1" parent="hvz59eMdP9MXctziR_3p-8">
          <mxGeometry width="17.82" height="32.5" as="geometry" />
        </mxCell>
        <mxCell id="hvz59eMdP9MXctziR_3p-10" value="" style="sketch=0;pointerEvents=1;shadow=0;dashed=0;html=1;strokeColor=none;fillColor=#505050;labelPosition=center;verticalLabelPosition=bottom;verticalAlign=top;outlineConnect=0;align=center;shape=mxgraph.office.devices.cell_phone_android_proportional;hachureGap=4;jiggle=2;curveFitting=1;fontFamily=Architects Daughter;fontSource=https%3A%2F%2Ffonts.googleapis.com%2Fcss%3Ffamily%3DArchitects%2BDaughter;" vertex="1" parent="hvz59eMdP9MXctziR_3p-8">
          <mxGeometry x="25" width="17.82" height="32.5" as="geometry" />
        </mxCell>
        <mxCell id="hvz59eMdP9MXctziR_3p-11" value="" style="sketch=0;pointerEvents=1;shadow=0;dashed=0;html=1;strokeColor=none;fillColor=#505050;labelPosition=center;verticalLabelPosition=bottom;verticalAlign=top;outlineConnect=0;align=center;shape=mxgraph.office.devices.cell_phone_android_proportional;hachureGap=4;jiggle=2;curveFitting=1;fontFamily=Architects Daughter;fontSource=https%3A%2F%2Ffonts.googleapis.com%2Fcss%3Ffamily%3DArchitects%2BDaughter;" vertex="1" parent="hvz59eMdP9MXctziR_3p-8">
          <mxGeometry x="50" width="17.82" height="32.5" as="geometry" />
        </mxCell>
      </root>
    </mxGraphModel>
  </diagram>
  <diagram name="old Components" id="WI9c1KqzkwD8hP7JMG7o">
    <mxGraphModel dx="726" dy="562" grid="1" gridSize="10" guides="1" tooltips="1" connect="1" arrows="1" fold="1" page="1" pageScale="1" pageWidth="500" pageHeight="300" math="0" shadow="0">
      <root>
        <mxCell id="U4MpfGvtpD03vfwgdI-s-0" />
        <mxCell id="U4MpfGvtpD03vfwgdI-s-1" parent="U4MpfGvtpD03vfwgdI-s-0" />
        <mxCell id="U4MpfGvtpD03vfwgdI-s-2" value="Game monitor" style="rounded=0;whiteSpace=wrap;html=1;sketch=1;hachureGap=4;jiggle=2;curveFitting=1;fontFamily=Architects Daughter;fontSource=https%3A%2F%2Ffonts.googleapis.com%2Fcss%3Ffamily%3DArchitects%2BDaughter;" parent="U4MpfGvtpD03vfwgdI-s-1" vertex="1">
          <mxGeometry x="80" y="30" width="118" height="40" as="geometry" />
        </mxCell>
        <mxCell id="U4MpfGvtpD03vfwgdI-s-3" value="Game client" style="rounded=0;whiteSpace=wrap;html=1;sketch=1;hachureGap=4;jiggle=2;curveFitting=1;fontFamily=Architects Daughter;fontSource=https%3A%2F%2Ffonts.googleapis.com%2Fcss%3Ffamily%3DArchitects%2BDaughter;" parent="U4MpfGvtpD03vfwgdI-s-1" vertex="1">
          <mxGeometry x="80" y="160" width="120" height="40" as="geometry" />
        </mxCell>
        <mxCell id="U4MpfGvtpD03vfwgdI-s-4" value="" style="sketch=0;pointerEvents=1;shadow=0;dashed=0;html=1;strokeColor=none;fillColor=#505050;labelPosition=center;verticalLabelPosition=bottom;verticalAlign=top;outlineConnect=0;align=center;shape=mxgraph.office.devices.lcd_monitor;hachureGap=4;jiggle=2;curveFitting=1;fontFamily=Architects Daughter;fontSource=https%3A%2F%2Ffonts.googleapis.com%2Fcss%3Ffamily%3DArchitects%2BDaughter;" parent="U4MpfGvtpD03vfwgdI-s-1" vertex="1">
          <mxGeometry x="20" y="34" width="39" height="32" as="geometry" />
        </mxCell>
        <mxCell id="U4MpfGvtpD03vfwgdI-s-5" style="edgeStyle=orthogonalEdgeStyle;rounded=0;sketch=1;hachureGap=4;jiggle=2;curveFitting=1;orthogonalLoop=1;jettySize=auto;html=1;fontFamily=Architects Daughter;fontSource=https%3A%2F%2Ffonts.googleapis.com%2Fcss%3Ffamily%3DArchitects%2BDaughter;startArrow=classic;startFill=1;" parent="U4MpfGvtpD03vfwgdI-s-1" source="U4MpfGvtpD03vfwgdI-s-10" target="U4MpfGvtpD03vfwgdI-s-3" edge="1">
          <mxGeometry relative="1" as="geometry" />
        </mxCell>
        <mxCell id="U4MpfGvtpD03vfwgdI-s-6" value="SignalR" style="edgeLabel;html=1;align=center;verticalAlign=middle;resizable=0;points=[];sketch=1;hachureGap=4;jiggle=2;curveFitting=1;fontFamily=Architects Daughter;fontSource=https%3A%2F%2Ffonts.googleapis.com%2Fcss%3Ffamily%3DArchitects%2BDaughter;" parent="U4MpfGvtpD03vfwgdI-s-5" vertex="1" connectable="0">
          <mxGeometry x="0.0095" relative="1" as="geometry">
            <mxPoint as="offset" />
          </mxGeometry>
        </mxCell>
        <mxCell id="U4MpfGvtpD03vfwgdI-s-10" value="&lt;font&gt;Blazor @ static web&lt;br&gt;SignalR Hub&lt;/font&gt;" style="rounded=0;whiteSpace=wrap;html=1;sketch=1;hachureGap=4;jiggle=2;curveFitting=1;fontFamily=Architects Daughter;fontSource=https%3A%2F%2Ffonts.googleapis.com%2Fcss%3Ffamily%3DArchitects%2BDaughter;fontSize=9;" parent="U4MpfGvtpD03vfwgdI-s-1" vertex="1">
          <mxGeometry x="80" y="70" width="118" height="30" as="geometry" />
        </mxCell>
        <mxCell id="U4MpfGvtpD03vfwgdI-s-11" value="" style="group" parent="U4MpfGvtpD03vfwgdI-s-1" vertex="1" connectable="0">
          <mxGeometry x="106.08999999999992" y="250" width="67.82000000000005" height="32.5" as="geometry" />
        </mxCell>
        <mxCell id="U4MpfGvtpD03vfwgdI-s-12" value="" style="sketch=0;pointerEvents=1;shadow=0;dashed=0;html=1;strokeColor=none;fillColor=#505050;labelPosition=center;verticalLabelPosition=bottom;verticalAlign=top;outlineConnect=0;align=center;shape=mxgraph.office.devices.cell_phone_android_proportional;hachureGap=4;jiggle=2;curveFitting=1;fontFamily=Architects Daughter;fontSource=https%3A%2F%2Ffonts.googleapis.com%2Fcss%3Ffamily%3DArchitects%2BDaughter;" parent="U4MpfGvtpD03vfwgdI-s-11" vertex="1">
          <mxGeometry width="17.82" height="32.5" as="geometry" />
        </mxCell>
        <mxCell id="U4MpfGvtpD03vfwgdI-s-13" value="" style="sketch=0;pointerEvents=1;shadow=0;dashed=0;html=1;strokeColor=none;fillColor=#505050;labelPosition=center;verticalLabelPosition=bottom;verticalAlign=top;outlineConnect=0;align=center;shape=mxgraph.office.devices.cell_phone_android_proportional;hachureGap=4;jiggle=2;curveFitting=1;fontFamily=Architects Daughter;fontSource=https%3A%2F%2Ffonts.googleapis.com%2Fcss%3Ffamily%3DArchitects%2BDaughter;" parent="U4MpfGvtpD03vfwgdI-s-11" vertex="1">
          <mxGeometry x="25" width="17.82" height="32.5" as="geometry" />
        </mxCell>
        <mxCell id="U4MpfGvtpD03vfwgdI-s-14" value="" style="sketch=0;pointerEvents=1;shadow=0;dashed=0;html=1;strokeColor=none;fillColor=#505050;labelPosition=center;verticalLabelPosition=bottom;verticalAlign=top;outlineConnect=0;align=center;shape=mxgraph.office.devices.cell_phone_android_proportional;hachureGap=4;jiggle=2;curveFitting=1;fontFamily=Architects Daughter;fontSource=https%3A%2F%2Ffonts.googleapis.com%2Fcss%3Ffamily%3DArchitects%2BDaughter;" parent="U4MpfGvtpD03vfwgdI-s-11" vertex="1">
          <mxGeometry x="50" width="17.82" height="32.5" as="geometry" />
        </mxCell>
        <mxCell id="U4MpfGvtpD03vfwgdI-s-15" value="&lt;font&gt;Blazor @ static web&lt;br&gt;Signal R Client&lt;/font&gt;" style="rounded=0;whiteSpace=wrap;html=1;sketch=1;hachureGap=4;jiggle=2;curveFitting=1;fontFamily=Architects Daughter;fontSource=https%3A%2F%2Ffonts.googleapis.com%2Fcss%3Ffamily%3DArchitects%2BDaughter;fontStyle=0;fontSize=9;" parent="U4MpfGvtpD03vfwgdI-s-1" vertex="1">
          <mxGeometry x="80" y="200" width="120" height="30" as="geometry" />
        </mxCell>
        <mxCell id="U4MpfGvtpD03vfwgdI-s-16" value="Example bot&lt;div&gt;server&lt;/div&gt;" style="rounded=0;whiteSpace=wrap;html=1;sketch=1;hachureGap=4;jiggle=2;curveFitting=1;fontFamily=Architects Daughter;fontSource=https%3A%2F%2Ffonts.googleapis.com%2Fcss%3Ffamily%3DArchitects%2BDaughter;" parent="U4MpfGvtpD03vfwgdI-s-1" vertex="1">
          <mxGeometry x="310" y="120" width="118" height="40" as="geometry" />
        </mxCell>
        <mxCell id="U4MpfGvtpD03vfwgdI-s-17" value="&lt;font&gt;Blazor @ static web&lt;/font&gt;" style="rounded=0;whiteSpace=wrap;html=1;sketch=1;hachureGap=4;jiggle=2;curveFitting=1;fontFamily=Architects Daughter;fontSource=https%3A%2F%2Ffonts.googleapis.com%2Fcss%3Ffamily%3DArchitects%2BDaughter;fontSize=9;" parent="U4MpfGvtpD03vfwgdI-s-1" vertex="1">
          <mxGeometry x="310" y="160" width="118" height="20" as="geometry" />
        </mxCell>
        <mxCell id="U4MpfGvtpD03vfwgdI-s-18" value="Bring your&lt;div&gt;own bot server&lt;/div&gt;" style="rounded=0;whiteSpace=wrap;html=1;sketch=1;hachureGap=4;jiggle=2;curveFitting=1;fontFamily=Architects Daughter;fontSource=https%3A%2F%2Ffonts.googleapis.com%2Fcss%3Ffamily%3DArchitects%2BDaughter;" parent="U4MpfGvtpD03vfwgdI-s-1" vertex="1">
          <mxGeometry x="310" y="30" width="118" height="40" as="geometry" />
        </mxCell>
        <mxCell id="U4MpfGvtpD03vfwgdI-s-19" value="&lt;font&gt;REST API&lt;/font&gt;" style="rounded=0;whiteSpace=wrap;html=1;sketch=1;hachureGap=4;jiggle=2;curveFitting=1;fontFamily=Architects Daughter;fontSource=https%3A%2F%2Ffonts.googleapis.com%2Fcss%3Ffamily%3DArchitects%2BDaughter;fontSize=9;" parent="U4MpfGvtpD03vfwgdI-s-1" vertex="1">
          <mxGeometry x="310" y="70" width="118" height="20" as="geometry" />
        </mxCell>
        <mxCell id="U4MpfGvtpD03vfwgdI-s-20" value="" style="shape=image;verticalLabelPosition=bottom;labelBackgroundColor=default;verticalAlign=top;aspect=fixed;imageAspect=0;image=data:image/png,iVBORw0KGgoAAAANSUhEUgAAAHkAAABmCAYAAADvej4HAAAAAXNSR0IArs4c6QAAAARnQU1BAACxjwv8YQUAAAAJcEhZcwAADsMAAA7DAcdvqGQAABU0SURBVHhe7Z15sNXz/8ffSkVKpX1B9mijkCVrthApg5SUJfxhyTJtZhCj0YJQmr62wVhmGiaaJEokoYkWmqJpI4QipbqlPr/X43XP69P7fO7p/u79nHvuuffc85x5nc/+fr/er+d7385+gcDlOPbs2eM2b97s/vnnH7d7925HkPfff3938MEHu7p16+p5LiMnSYbU/fbbTwldtWqV++mnn9w777zjPvroIyUaNGnSxHXr1s2de+65rl27du6www5zNWrU0Ge5hpwjmeD8999/7q+//nJffvmle/bZZ93nn3/uCgoK9JmBSACqVavmevTo4fr27eu6d+/uateurc94196p9IDkXIKk4mDDhg3BM888Exx99NGBpM5AyAqqV68Ow6FwTwhWqVmzZnDEEUcEjzzySPDvv/8GEknUnVxBzpG8ZcuW4IUXXgiOOuooJVDKWz1CapRgiLd3OCdCSMoPdu7cGUhWT4xJuFq5kTMkQ8quXbuCOXPmBCeddFJIoC+Q64vd81N4ixYtgjVr1uQUydUkYDkBCYvbunWr+/TTT913332n14gQqc8lO3ZTp051s2fPdrNmzXKS2t0ZZ5zhJKsO3wG//fabu/vuuwvL43yZXLFAGfrVV18FRx55ZFJqRa688spg+fLlmtINO3bsCJYsWRL07t07TNEcyQEaNWoUbNu2LfFm5UfOpGRA82j16tVhKkYaNGjgRo0a5Y499tik9jDnxx9/vLvuuuuclN/6Lk0vRCpfbtq0aYk3Kz9yKrumXRxF165dlegoJOWq9OrVy51yyilhc8nInj59ul7nAnKGZAgmBRpZhuOOO87VqlVLifNhJEMqoFzmWrJrbWf/+eefej8XkDMkQ9KBBx5YhMyVK1c6KX+VuCggePu2bdpRwneQzBG3mjVrlnir8iOnSD7ooIOK9EPT20U5Hb0PpLbm5khtfMWKFYXXQjpEU+O++OKL9V4uIKfKZAYcyJ7Jci37/eOPP9zTTz/tfvzxxzBrBmTvS6WpNXny5JBkA9/Tr50ryJm+a7LjTZs2ufHjx7sxY8YooRAJ0chll13munTp4g4//HAlEdI/++wz7d+mLDcz8Kxfv37ajk6V+isjcoZkCIXo+fPnu/vuu899++23eh+CDXXq1HGHHHKIEvn7778ruQATmBl4jhvS3s4ZkglcTkAqTNoVSd+1ZM9B06ZNw04OITWpC9POfeEdITV44403tO8a93IFOUOyj40bNwYjR44MmjRpEpLK4APnCKRyj3OIhWDuTZkyRXvCcolgkJMkQxLdku+++27Qvn17JRgyjWQEYrnPsV27dsHs2bODzZs35xzBICdJJttGIIyUOXXq1KBVq1ZJJJNyO3furKn3HyGX93MVOdOE8iFZcdiEos17xRVXuLZt2yaeFkLCrlN/evfu7epK04v3cxW5G7I8QuRJrgLIk1wFkCe5CiBPchVAnuQqgDzJVQB5kqsAMkoyHQ6IYc+ePW7Xrl3h/fIQwDHVzBAQfb88pbyQMZL3Faga5byojF4vwDwvH9bDRcTLFny72DETSHs8eV+fM6/q119/1cnqO3fuDOdOZQP4PWLECJ0gYKhevbp2ad56661ZGzcmAmI/In7z5s1dy5YttRvWh0XSdJA2yRjQnLCB+wULFrilS5e6Tz75RFc0MGMjTW9yEkYgc9MuueQS7Us/4YQTdIowkxKxmfXDpwVITgdCsh6F3EBSbvDwww8HHTp0CFcTioKwm5cUgm3MRjZpoW3btsHo0aODxYsX64oP7JouYpMMuQhKMEz3xRdfBDfeeGM4bovydrRz/35eipJs1/Xr19flOyzeyxrJkGtjtsQ21hRJVqOKR0lEcVM+1fOqLkawkW3H2rVrB+eff34gxV24XtpyzdIidpnMZ8j27dvdtddeqysFU63mp1bbtGlTd+ihh2o5Y/fzKFy79fPPP7sNGzZoXUbI1ToOlUIEXHrppe6hhx7SdVtU0OLYLi2SqWjdeeed7tVXX9UaNIoaqEz07NnT3Xbbba5Vq1Zaa0RxAkFg8iicRozdNm7cqHPD33rrLbUPRJqNDjjgAPfoo4+6m266SeeVx0ogkBwHZB3z5s0LpDYYZj2igFa4GjZsGDz++OPB1q1bNTuPm81UFWAfpilJaySoU6dOUpHGOVtdzJ8/P7YdY5GMZ5THkooDiWmhQojEtmD48OFKLu/kUTJgU2zGfDQp4pJsShn99ttva0SIg9j5JlnMunXrtBw2kMV06tTJPfjgg2F2I34kldN5FI+TTz7ZXX/99YmrQmC/iRMnqs3jIDbJdHawP5ZPIOXu4MGD9WjlCkckj+KBjeh5a9GihRswYEBYyTLbzZ07N1zxUVrEIhmP2ZcDkn1QSbjgggvypKYJKq10cfokA79iWxrEIpnUyyLtLVu2JO4UApKtmZRHfLAeq2PHjkWKOpqr/nVJETslS0VBPfRjmp1HY2AepQNZdb169RJXhYkKe5drSjZEY1oeZQezq2/fuAknLZLzqBzYJ8n0ZhGL6Hr7+++/dT0vR4TNSck6rOutrCDtRM2W6AViPNqALpT/bMaGv7xj+oFt27bpsayB+/iDf1Y82X308Rev25H3CYddpwtroVDfMfubsL0zQvgtO8df/AfcU8jNJMiDYO3atYG01bTnis6NunXrak+ML3SCWMc6ziDNmzfX75HSQhQMO1A437Rpk/aaNWvWTHXATymnVNgYdezYsfoO77KeOBMgHOizW/xgGHXUqFG6GRz2QA87so8nQ6zr16/XMKAP38WFtFqCG264QW2L0BnC6J7UuovwgGCfBg0aBIMGDQrWrVsX/Cc6ALNLEskEatasWbo3JQ4bgZwjRqaJTzCSDslqTBGWnE6ePFmVxk8ikvlvYv4yJDd9+vTg361bE66ULSyyvfTSS0Hr1q1D/y3spoedEyEnTpyo3bnpwCfZ3OdofkfF/EfQc+nSpUmRPyQZYlauXBn07NkzyQGMTCwyj4qT0pLMeyiDcC7NsmDgwIEaY313zW8LiH9OwIcNGxZIsaKRhJRUUv9TATfQhyPrlZ944omUxrVczPRBTB+2VJYiba8epdQnSjJu+v5E/YveP+2003THBcIAlGSU4QYpiOzHXsYRE98RBMejHsQhGX8RKWOCESNGaOr03UTM/6gupgNFB2QUFBSEAYuNhE5EGvbMrlmzpvrh+2t6IL4NLEHwzbhx43TvbAtfaRDNrn0xv3w9Ut1jn1EiPAgrXmJwnYtFQW6Q5zpMePrpp+uOshxNmHjG83QgymjFAndmzpzppkyZkuQ/4HmjRo3ciSeeqB0EnIsxk5oTVNTYoX7evHlpt88JEbZgdyDbRQgdfKADffRSrLnGjRuHfgqZYcVL6hO6OQ3n0e9LC3TAD/YAlVSaxAPXjNX74F32EzW9wmmKBAyJggkBffr0SSZUzp+bMMG99tprGqh0gLt0vLOXJbvnGejHRRiTJoIxwQ18//33OkFhzpw5YY8bpFP7Z3snAk5NNB1AjJTD7pdffkkKN715bOJ29tlnu86dO+u9JUuW6ITFDz/8UHukzIa0QP43eXL4XrrA3bvuukvD50dk7jOe/9xzz+m1RYhFixbtjVxyUyEKalnCLRN5OXjllVdSZr8MJzJ27L8fp+LFu2Ig3dvDd4ss74477pDa4lp9hyyPigRZkBAddOvWrYj/7P1BNpUO8IuymBor4Te38evmm28OJIWHZTbC+Q8//BAMHDBAs2t7n29xw+oKpUG0TDb5+uuvU9qWlob/Ht9J6k48rQDbSYgOToyUlIoBnfRDhgxxLVu2CmOnSZs2bXS2BCM2XANiLamZKcDpgm0aaZPjr4GskhyNrBG/LJXgP3t+3dC/v07R8UH7lek96RUg6eP/JZnAmCF9mMHLAnR8+J0fgL/xwaDmD0K2bPpQFkW3OMaoTOb3yYkDSTFFiq4LL7zQdejQISQX+HqhL/OmfeAGu/7JS4k72UGxJBOATMMMFSXGUqkJ8K8RJgka6XxP/UCyT72OC8kPdT/OqBtMRpTsV+sJ9oyjnfMnYvzXlP8dJK9fvz7tSFccSuJ21rNrDAE5UUSz71Sgy5VvzbAQDvHpGLWapMrWrVsXcQN9KA6i97kmDMy45I/G7LkdKVr81J8NZNV3DIFQa+VPt3zQ/KAZgwHNkICUSu33448/1v5bwDMMSTlODmAGjgO+veiii5JSJOAf4mwtleni64S+1LB9oBNZOM+ziaynZAzB2h/awVGwPojUQXmN0TEqzZSl0mwZPmyYlr8GUjR/xXf55ZenlXLwh9yAgXsflPcvvviitsVplxMZeBfdpEbvpBWiqdnAs/r162s2TpmdTWSVZAyBUGk59dRTdbDcAFGQSKpiT2raxdScOe/br59bLET7gBg2ZKOmmw4gD7fuvffepMjCfXIP+g3oHzB9Xn/9dZ14995774UpG0Ds7bffHs53yypEeUWqdrIEMpCGduKNZNAFSVvWfz+dAYoZM2YEHTt2DLsqcU+Mk9RW5D5tUYR2K9f2juQEulyHdms6MP1p+3bq1CnUA/8QX5+oblF9li1bFqsvvTTtZK4rfDvZQBOFP92iG1WU1Huin4pBAqTZMmLdhaT+evXqacrjb4H89+MCNyjbaadTcUIfqwv47kd1Qx9q3/TODR06VCtw3CsLndJBhSEZQ15zzTW6WJyy1YguDhiQf24bPXq069e3r2aRJfmuJKAiSMQbJmU/9YWSutu+fXt3//33a30i3Zp+WaFCkYxhJZtykyZN0rnHkAaRZmCOdk5ZN3DgQPfUU0+5W265Re+Ting/HZgfCBUnNl8lEqEXlTH8RS97F/8gk44Z/p6Xd6+66irNXXy3sokKQzLAGDSnqGw9OnKkDlpAOP8fwR+IkHVSe54wYYI+Y6UGqY2sUj4O3UgX5ga/dICcddZZTuorWrliYRqDFOhyzDHHaIp98skn3fvvv+8ee+wxbTLxjX4v7viRNGuQ7ESR7YpXKkjZq2OyUsvWf0JdvXq1TsNh9ggVGipZvLOzoCDxRdnDwmLh8vVB0Id79hx97Ju4yNmKVyqQCsjC6VLkX2CoyPCnXKR2smbLzmtIFpophKlajoivD4I+3LPnFSLlRlChSc6jbJBEckWLgXnEh89lSHIqgiU733u/AjQFqiJ8XqIcwc++kJLkfQGHVPzzhORRPkhFbnE8cI9v7Fmx2TXXzHOiD5nOd44m0ZkTeWQWVDLXrl0b7nKIcA4/zCfzUYRHIQpol924cePc8OHDE48KwYxEm0TnY/HixW7ZsmVJnfLM4GSQHEQ9yhTQHZSXf+UBpgzBA4MfhI+wUWs/88wzw25f7pvt4YEJhQae038wY8aMQrvAMG0t2pzMM2YOs7xXpI1WEinrdnJJQds0E7CwlHd49tVOLqnQv8HKErNLUnZtc3qJNZUBon/iLDPItPuZAjkvqV5TsUDZ5AJi6YinH5gxWbsHrK/WwDOTbIKNabp27arzsplzHR0lAnatR+8Z1/ZMUmp4bmDFImPXRPxevXrphLzoO+UBONiXnaP34Yk+c2xRp04dt9tmpIjiSaC7cO7cucE555wTzmsWx5LW/iBkCQjPTcojuzb3yYoY790/sU6LYoZFckJKMGnSJJ0fvSOxJZJ9Q9j87znac95lDPnll18OunTpoisWa9eurTbAD1Z58jxTRYOPVNl11P5RQUdJvcGCBQu8cBfqWmRHPglwWKCvWbNGK1KWQixli6M6O+LNN99M2uIp0xUvX1Um1jGQYfqZf3R3AsJgc77ImRhQoDuSkSWeMQmQb3GHedacW4vB/DE3OZJCWFXBqJTZIVPwK16+HVklwaCIrxdgFIyNZLA/4+voT6pmDFztITeSYJ3+gBgejfEmQ4YMSVoxgJRXxQudpOmg64IloEkzMqKCXna0c6QaksiNTKLvWerhyJLQDz74QFdxZDp8fko2vTguXLgw5COqA9c8859zDopESWKAOKjn4nhSmcDRhBjCu9kAOhFrzzvvPC17JEDhfXSTcCWlSDsCuy8mCnMtE+5b2AHXhJMFbtRV2EiNMJs9ygOmF0chLYkDH1yju9nArkFm850MgwkDgwYN0sl1rG6A8LIAxsEtZnlcffXVmnXyNwYNGzYsYtzKgNi75DJgz9JOpqcaMl0mpwLlDkFg9iR/i0APELVu6hMcWflIKigO6MpAP0OHrHmiHKfTgY4gJgwwlGhm4uin9kzAL5MN+MvUX6Yvl9a2sUlmLtbYsWOLkIyRMSqKlGesJxhkZ8yPpruPLkBIpoJlWV5BwQ7Rt7ASSWXFNpbzSaaSBsksfy1P/X3si2TWaFFklFov+TgWmEUS3fahcePGYYHPsTyBf+a3779/b8eO7bqfB0Izw74x2LV/LxtYsWKFLs0VMkPbcr5o0aJYusXOd4jtNEd8sJqAlGyFf3kC/xD89v3379WqdYA2qxBSclRHcyMbEC7CI4vy2buUSp5VcNE/bu4Si2QUoaeJ9bi+p7SZbfcBU7qiI5XRskE0fkoq1Ta/NKF071KuEUm+Sa2e0iLWVyjEfCumofpkoiDlCOViNgxV2UHiYEiX/UYsoajIM5pw1O7jIHZKZv4xtU9/ITj3GfZi2ix9v34EyKN4YCsSx/PPP6/DhpZySSwULeydUr/+3k1VSwVxvNSwigw9M5JtJ/UMSRmiu8T16dMn+Oabb5L2s+IbetS4rspi4Bx7sK/I8uXLg759+4a2RIRkve7evbtWxrBfHMRqQvGJfcbWSmQvVBb8+1QY6E/t37+/lt/ERglUPhv3YLZiV3r+foAdDuh7tr9eIiVTwcXGPXr0UNvFKZdjk2yEIQ888IBmM2Q3poQ94z3eh3Q6LsiGuFeVgV0AdjHzYx/KYY424MIeYWzrRK9eWr1t4klaIMshS5bGu66oIHshm8HpvJROhMSw2JNcMBg6dKiu0kgXaZMMKFck9gVjx4zRHWwhOU906QWCGb+Wpmkwfvz4YNWqVbHLYR9lQjKKkKIZhmMx+T333BM0adJElY4GJE/+3hQbPacHcfDgwcHMmTN1wzirpKaL2H3X+wLlLRUI9vpgY5dp06a5hQsXhgMFVCwoc6oyhFQ9Un9h8IN9OvnD7kNbtXLHtWmj5S91l7JCmZMMzElqiQwQUCGDYMAzC2Qee4mmixhiq4ltsB73ywoZScmmYNTpPLmFMLtgD84RbEbrg9p1WSMjKTmPioWyyxPyqLDIk5zzcO7/APrT8VeA1D3oAAAAAElFTkSuQmCC;" parent="U4MpfGvtpD03vfwgdI-s-1" vertex="1">
          <mxGeometry x="440" y="130" width="23.73" height="20" as="geometry" />
        </mxCell>
        <mxCell id="U4MpfGvtpD03vfwgdI-s-21" value="" style="shape=image;verticalLabelPosition=bottom;labelBackgroundColor=default;verticalAlign=top;aspect=fixed;imageAspect=0;image=data:image/png,iVBORw0KGgoAAAANSUhEUgAAAHkAAABmCAYAAADvej4HAAAAAXNSR0IArs4c6QAAAARnQU1BAACxjwv8YQUAAAAJcEhZcwAADsMAAA7DAcdvqGQAABU0SURBVHhe7Z15sNXz/8ffSkVKpX1B9mijkCVrthApg5SUJfxhyTJtZhCj0YJQmr62wVhmGiaaJEokoYkWmqJpI4QipbqlPr/X43XP69P7fO7p/u79nHvuuffc85x5nc/+fr/er+d7385+gcDlOPbs2eM2b97s/vnnH7d7925HkPfff3938MEHu7p16+p5LiMnSYbU/fbbTwldtWqV++mnn9w777zjPvroIyUaNGnSxHXr1s2de+65rl27du6www5zNWrU0Ge5hpwjmeD8999/7q+//nJffvmle/bZZ93nn3/uCgoK9JmBSACqVavmevTo4fr27eu6d+/uateurc94196p9IDkXIKk4mDDhg3BM888Exx99NGBpM5AyAqqV68Ow6FwTwhWqVmzZnDEEUcEjzzySPDvv/8GEknUnVxBzpG8ZcuW4IUXXgiOOuooJVDKWz1CapRgiLd3OCdCSMoPdu7cGUhWT4xJuFq5kTMkQ8quXbuCOXPmBCeddFJIoC+Q64vd81N4ixYtgjVr1uQUydUkYDkBCYvbunWr+/TTT913332n14gQqc8lO3ZTp051s2fPdrNmzXKS2t0ZZ5zhJKsO3wG//fabu/vuuwvL43yZXLFAGfrVV18FRx55ZFJqRa688spg+fLlmtINO3bsCJYsWRL07t07TNEcyQEaNWoUbNu2LfFm5UfOpGRA82j16tVhKkYaNGjgRo0a5Y499tik9jDnxx9/vLvuuuuclN/6Lk0vRCpfbtq0aYk3Kz9yKrumXRxF165dlegoJOWq9OrVy51yyilhc8nInj59ul7nAnKGZAgmBRpZhuOOO87VqlVLifNhJEMqoFzmWrJrbWf/+eefej8XkDMkQ9KBBx5YhMyVK1c6KX+VuCggePu2bdpRwneQzBG3mjVrlnir8iOnSD7ooIOK9EPT20U5Hb0PpLbm5khtfMWKFYXXQjpEU+O++OKL9V4uIKfKZAYcyJ7Jci37/eOPP9zTTz/tfvzxxzBrBmTvS6WpNXny5JBkA9/Tr50ryJm+a7LjTZs2ufHjx7sxY8YooRAJ0chll13munTp4g4//HAlEdI/++wz7d+mLDcz8Kxfv37ajk6V+isjcoZkCIXo+fPnu/vuu899++23eh+CDXXq1HGHHHKIEvn7778ruQATmBl4jhvS3s4ZkglcTkAqTNoVSd+1ZM9B06ZNw04OITWpC9POfeEdITV44403tO8a93IFOUOyj40bNwYjR44MmjRpEpLK4APnCKRyj3OIhWDuTZkyRXvCcolgkJMkQxLdku+++27Qvn17JRgyjWQEYrnPsV27dsHs2bODzZs35xzBICdJJttGIIyUOXXq1KBVq1ZJJJNyO3furKn3HyGX93MVOdOE8iFZcdiEos17xRVXuLZt2yaeFkLCrlN/evfu7epK04v3cxW5G7I8QuRJrgLIk1wFkCe5CiBPchVAnuQqgDzJVQB5kqsAMkoyHQ6IYc+ePW7Xrl3h/fIQwDHVzBAQfb88pbyQMZL3Faga5byojF4vwDwvH9bDRcTLFny72DETSHs8eV+fM6/q119/1cnqO3fuDOdOZQP4PWLECJ0gYKhevbp2ad56661ZGzcmAmI/In7z5s1dy5YttRvWh0XSdJA2yRjQnLCB+wULFrilS5e6Tz75RFc0MGMjTW9yEkYgc9MuueQS7Us/4YQTdIowkxKxmfXDpwVITgdCsh6F3EBSbvDwww8HHTp0CFcTioKwm5cUgm3MRjZpoW3btsHo0aODxYsX64oP7JouYpMMuQhKMEz3xRdfBDfeeGM4bovydrRz/35eipJs1/Xr19flOyzeyxrJkGtjtsQ21hRJVqOKR0lEcVM+1fOqLkawkW3H2rVrB+eff34gxV24XtpyzdIidpnMZ8j27dvdtddeqysFU63mp1bbtGlTd+ihh2o5Y/fzKFy79fPPP7sNGzZoXUbI1ToOlUIEXHrppe6hhx7SdVtU0OLYLi2SqWjdeeed7tVXX9UaNIoaqEz07NnT3Xbbba5Vq1Zaa0RxAkFg8iicRozdNm7cqHPD33rrLbUPRJqNDjjgAPfoo4+6m266SeeVx0ogkBwHZB3z5s0LpDYYZj2igFa4GjZsGDz++OPB1q1bNTuPm81UFWAfpilJaySoU6dOUpHGOVtdzJ8/P7YdY5GMZ5THkooDiWmhQojEtmD48OFKLu/kUTJgU2zGfDQp4pJsShn99ttva0SIg9j5JlnMunXrtBw2kMV06tTJPfjgg2F2I34kldN5FI+TTz7ZXX/99YmrQmC/iRMnqs3jIDbJdHawP5ZPIOXu4MGD9WjlCkckj+KBjeh5a9GihRswYEBYyTLbzZ07N1zxUVrEIhmP2ZcDkn1QSbjgggvypKYJKq10cfokA79iWxrEIpnUyyLtLVu2JO4UApKtmZRHfLAeq2PHjkWKOpqr/nVJETslS0VBPfRjmp1HY2AepQNZdb169RJXhYkKe5drSjZEY1oeZQezq2/fuAknLZLzqBzYJ8n0ZhGL6Hr7+++/dT0vR4TNSck6rOutrCDtRM2W6AViPNqALpT/bMaGv7xj+oFt27bpsayB+/iDf1Y82X308Rev25H3CYddpwtroVDfMfubsL0zQvgtO8df/AfcU8jNJMiDYO3atYG01bTnis6NunXrak+ML3SCWMc6ziDNmzfX75HSQhQMO1A437Rpk/aaNWvWTHXATymnVNgYdezYsfoO77KeOBMgHOizW/xgGHXUqFG6GRz2QA87so8nQ6zr16/XMKAP38WFtFqCG264QW2L0BnC6J7UuovwgGCfBg0aBIMGDQrWrVsX/Cc6ALNLEskEatasWbo3JQ4bgZwjRqaJTzCSDslqTBGWnE6ePFmVxk8ikvlvYv4yJDd9+vTg361bE66ULSyyvfTSS0Hr1q1D/y3spoedEyEnTpyo3bnpwCfZ3OdofkfF/EfQc+nSpUmRPyQZYlauXBn07NkzyQGMTCwyj4qT0pLMeyiDcC7NsmDgwIEaY313zW8LiH9OwIcNGxZIsaKRhJRUUv9TATfQhyPrlZ944omUxrVczPRBTB+2VJYiba8epdQnSjJu+v5E/YveP+2003THBcIAlGSU4QYpiOzHXsYRE98RBMejHsQhGX8RKWOCESNGaOr03UTM/6gupgNFB2QUFBSEAYuNhE5EGvbMrlmzpvrh+2t6IL4NLEHwzbhx43TvbAtfaRDNrn0xv3w9Ut1jn1EiPAgrXmJwnYtFQW6Q5zpMePrpp+uOshxNmHjG83QgymjFAndmzpzppkyZkuQ/4HmjRo3ciSeeqB0EnIsxk5oTVNTYoX7evHlpt88JEbZgdyDbRQgdfKADffRSrLnGjRuHfgqZYcVL6hO6OQ3n0e9LC3TAD/YAlVSaxAPXjNX74F32EzW9wmmKBAyJggkBffr0SSZUzp+bMMG99tprGqh0gLt0vLOXJbvnGejHRRiTJoIxwQ18//33OkFhzpw5YY8bpFP7Z3snAk5NNB1AjJTD7pdffkkKN715bOJ29tlnu86dO+u9JUuW6ITFDz/8UHukzIa0QP43eXL4XrrA3bvuukvD50dk7jOe/9xzz+m1RYhFixbtjVxyUyEKalnCLRN5OXjllVdSZr8MJzJ27L8fp+LFu2Ig3dvDd4ss74477pDa4lp9hyyPigRZkBAddOvWrYj/7P1BNpUO8IuymBor4Te38evmm28OJIWHZTbC+Q8//BAMHDBAs2t7n29xw+oKpUG0TDb5+uuvU9qWlob/Ht9J6k48rQDbSYgOToyUlIoBnfRDhgxxLVu2CmOnSZs2bXS2BCM2XANiLamZKcDpgm0aaZPjr4GskhyNrBG/LJXgP3t+3dC/v07R8UH7lek96RUg6eP/JZnAmCF9mMHLAnR8+J0fgL/xwaDmD0K2bPpQFkW3OMaoTOb3yYkDSTFFiq4LL7zQdejQISQX+HqhL/OmfeAGu/7JS4k72UGxJBOATMMMFSXGUqkJ8K8RJgka6XxP/UCyT72OC8kPdT/OqBtMRpTsV+sJ9oyjnfMnYvzXlP8dJK9fvz7tSFccSuJ21rNrDAE5UUSz71Sgy5VvzbAQDvHpGLWapMrWrVsXcQN9KA6i97kmDMy45I/G7LkdKVr81J8NZNV3DIFQa+VPt3zQ/KAZgwHNkICUSu33448/1v5bwDMMSTlODmAGjgO+veiii5JSJOAf4mwtleni64S+1LB9oBNZOM+ziaynZAzB2h/awVGwPojUQXmN0TEqzZSl0mwZPmyYlr8GUjR/xXf55ZenlXLwh9yAgXsflPcvvviitsVplxMZeBfdpEbvpBWiqdnAs/r162s2TpmdTWSVZAyBUGk59dRTdbDcAFGQSKpiT2raxdScOe/br59bLET7gBg2ZKOmmw4gD7fuvffepMjCfXIP+g3oHzB9Xn/9dZ14995774UpG0Ds7bffHs53yypEeUWqdrIEMpCGduKNZNAFSVvWfz+dAYoZM2YEHTt2DLsqcU+Mk9RW5D5tUYR2K9f2juQEulyHdms6MP1p+3bq1CnUA/8QX5+oblF9li1bFqsvvTTtZK4rfDvZQBOFP92iG1WU1Huin4pBAqTZMmLdhaT+evXqacrjb4H89+MCNyjbaadTcUIfqwv47kd1Qx9q3/TODR06VCtw3CsLndJBhSEZQ15zzTW6WJyy1YguDhiQf24bPXq069e3r2aRJfmuJKAiSMQbJmU/9YWSutu+fXt3//33a30i3Zp+WaFCkYxhJZtykyZN0rnHkAaRZmCOdk5ZN3DgQPfUU0+5W265Re+Ting/HZgfCBUnNl8lEqEXlTH8RS97F/8gk44Z/p6Xd6+66irNXXy3sokKQzLAGDSnqGw9OnKkDlpAOP8fwR+IkHVSe54wYYI+Y6UGqY2sUj4O3UgX5ga/dICcddZZTuorWrliYRqDFOhyzDHHaIp98skn3fvvv+8ee+wxbTLxjX4v7viRNGuQ7ESR7YpXKkjZq2OyUsvWf0JdvXq1TsNh9ggVGipZvLOzoCDxRdnDwmLh8vVB0Id79hx97Ju4yNmKVyqQCsjC6VLkX2CoyPCnXKR2smbLzmtIFpophKlajoivD4I+3LPnFSLlRlChSc6jbJBEckWLgXnEh89lSHIqgiU733u/AjQFqiJ8XqIcwc++kJLkfQGHVPzzhORRPkhFbnE8cI9v7Fmx2TXXzHOiD5nOd44m0ZkTeWQWVDLXrl0b7nKIcA4/zCfzUYRHIQpol924cePc8OHDE48KwYxEm0TnY/HixW7ZsmVJnfLM4GSQHEQ9yhTQHZSXf+UBpgzBA4MfhI+wUWs/88wzw25f7pvt4YEJhQae038wY8aMQrvAMG0t2pzMM2YOs7xXpI1WEinrdnJJQds0E7CwlHd49tVOLqnQv8HKErNLUnZtc3qJNZUBon/iLDPItPuZAjkvqV5TsUDZ5AJi6YinH5gxWbsHrK/WwDOTbIKNabp27arzsplzHR0lAnatR+8Z1/ZMUmp4bmDFImPXRPxevXrphLzoO+UBONiXnaP34Yk+c2xRp04dt9tmpIjiSaC7cO7cucE555wTzmsWx5LW/iBkCQjPTcojuzb3yYoY790/sU6LYoZFckJKMGnSJJ0fvSOxJZJ9Q9j87znac95lDPnll18OunTpoisWa9eurTbAD1Z58jxTRYOPVNl11P5RQUdJvcGCBQu8cBfqWmRHPglwWKCvWbNGK1KWQixli6M6O+LNN99M2uIp0xUvX1Um1jGQYfqZf3R3AsJgc77ImRhQoDuSkSWeMQmQb3GHedacW4vB/DE3OZJCWFXBqJTZIVPwK16+HVklwaCIrxdgFIyNZLA/4+voT6pmDFztITeSYJ3+gBgejfEmQ4YMSVoxgJRXxQudpOmg64IloEkzMqKCXna0c6QaksiNTKLvWerhyJLQDz74QFdxZDp8fko2vTguXLgw5COqA9c8859zDopESWKAOKjn4nhSmcDRhBjCu9kAOhFrzzvvPC17JEDhfXSTcCWlSDsCuy8mCnMtE+5b2AHXhJMFbtRV2EiNMJs9ygOmF0chLYkDH1yju9nArkFm850MgwkDgwYN0sl1rG6A8LIAxsEtZnlcffXVmnXyNwYNGzYsYtzKgNi75DJgz9JOpqcaMl0mpwLlDkFg9iR/i0APELVu6hMcWflIKigO6MpAP0OHrHmiHKfTgY4gJgwwlGhm4uin9kzAL5MN+MvUX6Yvl9a2sUlmLtbYsWOLkIyRMSqKlGesJxhkZ8yPpruPLkBIpoJlWV5BwQ7Rt7ASSWXFNpbzSaaSBsksfy1P/X3si2TWaFFklFov+TgWmEUS3fahcePGYYHPsTyBf+a3779/b8eO7bqfB0Izw74x2LV/LxtYsWKFLs0VMkPbcr5o0aJYusXOd4jtNEd8sJqAlGyFf3kC/xD89v3379WqdYA2qxBSclRHcyMbEC7CI4vy2buUSp5VcNE/bu4Si2QUoaeJ9bi+p7SZbfcBU7qiI5XRskE0fkoq1Ta/NKF071KuEUm+Sa2e0iLWVyjEfCumofpkoiDlCOViNgxV2UHiYEiX/UYsoajIM5pw1O7jIHZKZv4xtU9/ITj3GfZi2ix9v34EyKN4YCsSx/PPP6/DhpZySSwULeydUr/+3k1VSwVxvNSwigw9M5JtJ/UMSRmiu8T16dMn+Oabb5L2s+IbetS4rspi4Bx7sK/I8uXLg759+4a2RIRkve7evbtWxrBfHMRqQvGJfcbWSmQvVBb8+1QY6E/t37+/lt/ERglUPhv3YLZiV3r+foAdDuh7tr9eIiVTwcXGPXr0UNvFKZdjk2yEIQ888IBmM2Q3poQ94z3eh3Q6LsiGuFeVgV0AdjHzYx/KYY424MIeYWzrRK9eWr1t4klaIMshS5bGu66oIHshm8HpvJROhMSw2JNcMBg6dKiu0kgXaZMMKFck9gVjx4zRHWwhOU906QWCGb+Wpmkwfvz4YNWqVbHLYR9lQjKKkKIZhmMx+T333BM0adJElY4GJE/+3hQbPacHcfDgwcHMmTN1wzirpKaL2H3X+wLlLRUI9vpgY5dp06a5hQsXhgMFVCwoc6oyhFQ9Un9h8IN9OvnD7kNbtXLHtWmj5S91l7JCmZMMzElqiQwQUCGDYMAzC2Qee4mmixhiq4ltsB73ywoZScmmYNTpPLmFMLtgD84RbEbrg9p1WSMjKTmPioWyyxPyqLDIk5zzcO7/APrT8VeA1D3oAAAAAElFTkSuQmCC;" parent="U4MpfGvtpD03vfwgdI-s-1" vertex="1">
          <mxGeometry x="440" y="40" width="23.73" height="20" as="geometry" />
        </mxCell>
        <mxCell id="il9pxrBTSMmVRtakv8XX-2" style="edgeStyle=orthogonalEdgeStyle;rounded=0;sketch=1;hachureGap=4;jiggle=2;curveFitting=1;orthogonalLoop=1;jettySize=auto;html=1;fontFamily=Architects Daughter;fontSource=https%3A%2F%2Ffonts.googleapis.com%2Fcss%3Ffamily%3DArchitects%2BDaughter;exitX=1;exitY=0.5;exitDx=0;exitDy=0;entryX=0;entryY=0.5;entryDx=0;entryDy=0;" parent="U4MpfGvtpD03vfwgdI-s-1" source="U4MpfGvtpD03vfwgdI-s-2" target="U4MpfGvtpD03vfwgdI-s-16" edge="1">
          <mxGeometry relative="1" as="geometry">
            <mxPoint x="210" y="60" as="sourcePoint" />
            <mxPoint x="320" y="60" as="targetPoint" />
            <Array as="points">
              <mxPoint x="254" y="50" />
              <mxPoint x="254" y="140" />
            </Array>
          </mxGeometry>
        </mxCell>
        <mxCell id="U4MpfGvtpD03vfwgdI-s-8" style="edgeStyle=orthogonalEdgeStyle;rounded=0;sketch=1;hachureGap=4;jiggle=2;curveFitting=1;orthogonalLoop=1;jettySize=auto;html=1;fontFamily=Architects Daughter;fontSource=https%3A%2F%2Ffonts.googleapis.com%2Fcss%3Ffamily%3DArchitects%2BDaughter;" parent="U4MpfGvtpD03vfwgdI-s-1" target="U4MpfGvtpD03vfwgdI-s-18" edge="1">
          <mxGeometry relative="1" as="geometry">
            <mxPoint x="200" y="50" as="sourcePoint" />
          </mxGeometry>
        </mxCell>
        <mxCell id="U4MpfGvtpD03vfwgdI-s-9" value="REST" style="edgeLabel;html=1;align=center;verticalAlign=middle;resizable=0;points=[];sketch=1;hachureGap=4;jiggle=2;curveFitting=1;fontFamily=Architects Daughter;fontSource=https%3A%2F%2Ffonts.googleapis.com%2Fcss%3Ffamily%3DArchitects%2BDaughter;" parent="U4MpfGvtpD03vfwgdI-s-8" vertex="1" connectable="0">
          <mxGeometry x="-0.7739" relative="1" as="geometry">
            <mxPoint x="18" as="offset" />
          </mxGeometry>
        </mxCell>
        <mxCell id="4LlFiiN0gSq0Wxo0M4cZ-0" value="Game client&lt;div&gt;&lt;span style=&quot;background-color: transparent; color: light-dark(rgb(0, 0, 0), rgb(255, 255, 255)); font-size: 9px;&quot;&gt;&lt;br&gt;&lt;/span&gt;&lt;/div&gt;&lt;div&gt;&lt;span style=&quot;background-color: transparent; color: light-dark(rgb(0, 0, 0), rgb(255, 255, 255)); font-size: 9px;&quot;&gt;Blazor @ static web&lt;/span&gt;&lt;/div&gt;&lt;div&gt;&lt;span style=&quot;font-size: 9px;&quot;&gt;Signal R Client&lt;/span&gt;&lt;/div&gt;" style="rounded=0;whiteSpace=wrap;html=1;sketch=1;hachureGap=4;jiggle=2;curveFitting=1;fontFamily=Architects Daughter;fontSource=https%3A%2F%2Ffonts.googleapis.com%2Fcss%3Ffamily%3DArchitects%2BDaughter;" vertex="1" parent="U4MpfGvtpD03vfwgdI-s-1">
          <mxGeometry x="230" y="190" width="120" height="80" as="geometry" />
        </mxCell>
      </root>
    </mxGraphModel>
  </diagram>
</mxfile>
